<svg width="48" height="48" viewBox="0 0 48 48" fill="none" xmlns="http://www.w3.org/2000/svg">
<rect width="48" height="48" rx="24" fill="#B7E4C7"/>
<path d="M17.0227 34V10.7273H26.2045C27.9697 10.7273 29.4735 11.0644 30.7159 11.7386C31.9583 12.4053 32.9053 13.3333 33.5568 14.5227C34.2159 15.7045 34.5455 17.0682 34.5455 18.6136C34.5455 20.1591 34.2121 21.5227 33.5455 22.7045C32.8788 23.8864 31.9129 24.8068 30.6477 25.4659C29.3902 26.125 27.8674 26.4545 26.0795 26.4545H20.2273V22.5114H25.2841C26.2311 22.5114 27.0114 22.3485 27.625 22.0227C28.2462 21.6894 28.7083 21.2311 29.0114 20.6477C29.322 20.0568 29.4773 19.3788 29.4773 18.6136C29.4773 17.8409 29.322 17.1667 29.0114 16.5909C28.7083 16.0076 28.2462 15.5568 27.625 15.2386C27.0038 14.9129 26.2159 14.75 25.2614 14.75H21.9432V34H17.0227Z" fill="#40916C"/>
</svg>
